<svg class="plot-d6a7b5" fill="currentColor" font-family="system-ui, sans-serif" font-size="10" text-anchor="middle" width="1200" height="400" viewBox="0 0 1200 400" xmlns="http://www.w3.org/2000/svg" xmlns:xlink="http://www.w3.org/1999/xlink"><style>:where(.plot-d6a7b5) {
  --plot-background: white;
  display: block;
  height: auto;
  height: intrinsic;
  max-width: 100%;
}
:where(.plot-d6a7b5 text),
:where(.plot-d6a7b5 tspan) {
  white-space: pre;
}</style><g aria-label="y-grid" aria-hidden="true" stroke="currentColor" stroke-opacity="0.1"><line x1="40" x2="1180" y1="350" y2="350"/><line x1="40" x2="1180" y1="320" y2="320"/><line x1="40" x2="1180" y1="289.99999999999994" y2="289.99999999999994"/><line x1="40" x2="1180" y1="260" y2="260"/><line x1="40" x2="1180" y1="230" y2="230"/><line x1="40" x2="1180" y1="200" y2="200"/><line x1="40" x2="1180" y1="170" y2="170"/><line x1="40" x2="1180" y1="140" y2="140"/><line x1="40" x2="1180" y1="110" y2="110"/><line x1="40" x2="1180" y1="79.99999999999999" y2="79.99999999999999"/><line x1="40" x2="1180" y1="50.00000000000001" y2="50.00000000000001"/><line x1="40" x2="1180" y1="20" y2="20"/></g><g aria-label="y-axis tick" aria-hidden="true" fill="none" stroke="currentColor"><path transform="translate(40,350)" d="M0,0L-6,0"/><path transform="translate(40,320)" d="M0,0L-6,0"/><path transform="translate(40,289.99999999999994)" d="M0,0L-6,0"/><path transform="translate(40,260)" d="M0,0L-6,0"/><path transform="translate(40,230)" d="M0,0L-6,0"/><path transform="translate(40,200)" d="M0,0L-6,0"/><path transform="translate(40,170)" d="M0,0L-6,0"/><path transform="translate(40,140)" d="M0,0L-6,0"/><path transform="translate(40,110)" d="M0,0L-6,0"/><path transform="translate(40,79.99999999999999)" d="M0,0L-6,0"/><path transform="translate(40,50.00000000000001)" d="M0,0L-6,0"/><path transform="translate(40,20)" d="M0,0L-6,0"/></g><g aria-label="y-axis tick label" text-anchor="end" font-variant="tabular-nums" transform="translate(-9,0)"><text y="0.32em" transform="translate(40,350)">0</text><text y="0.32em" transform="translate(40,320)">1</text><text y="0.32em" transform="translate(40,289.99999999999994)">2</text><text y="0.32em" transform="translate(40,260)">3</text><text y="0.32em" transform="translate(40,230)">4</text><text y="0.32em" transform="translate(40,200)">5</text><text y="0.32em" transform="translate(40,170)">6</text><text y="0.32em" transform="translate(40,140)">7</text><text y="0.32em" transform="translate(40,110)">8</text><text y="0.32em" transform="translate(40,79.99999999999999)">9</text><text y="0.32em" transform="translate(40,50.00000000000001)">10</text><text y="0.32em" transform="translate(40,20)">11</text></g><g aria-label="y-axis label" text-anchor="start" transform="translate(-37,-17)"><text y="0.71em" transform="translate(40,20)">↑ Number of Days with Snowfall</text></g><g aria-label="x-axis tick" aria-hidden="true" fill="none" stroke="currentColor" transform="translate(6.5,0)"><path transform="translate(44,350)" d="M0,0L0,6"/><path transform="translate(58,350)" d="M0,0L0,6"/><path transform="translate(72,350)" d="M0,0L0,6"/><path transform="translate(86,350)" d="M0,0L0,6"/><path transform="translate(100,350)" d="M0,0L0,6"/><path transform="translate(114,350)" d="M0,0L0,6"/><path transform="translate(128,350)" d="M0,0L0,6"/><path transform="translate(142,350)" d="M0,0L0,6"/><path transform="translate(156,350)" d="M0,0L0,6"/><path transform="translate(170,350)" d="M0,0L0,6"/><path transform="translate(184,350)" d="M0,0L0,6"/><path transform="translate(198,350)" d="M0,0L0,6"/><path transform="translate(212,350)" d="M0,0L0,6"/><path transform="translate(226,350)" d="M0,0L0,6"/><path transform="translate(240,350)" d="M0,0L0,6"/><path transform="translate(254,350)" d="M0,0L0,6"/><path transform="translate(268,350)" d="M0,0L0,6"/><path transform="translate(282,350)" d="M0,0L0,6"/><path transform="translate(296,350)" d="M0,0L0,6"/><path transform="translate(310,350)" d="M0,0L0,6"/><path transform="translate(324,350)" d="M0,0L0,6"/><path transform="translate(338,350)" d="M0,0L0,6"/><path transform="translate(352,350)" d="M0,0L0,6"/><path transform="translate(366,350)" d="M0,0L0,6"/><path transform="translate(380,350)" d="M0,0L0,6"/><path transform="translate(394,350)" d="M0,0L0,6"/><path transform="translate(408,350)" d="M0,0L0,6"/><path transform="translate(422,350)" d="M0,0L0,6"/><path transform="translate(436,350)" d="M0,0L0,6"/><path transform="translate(450,350)" d="M0,0L0,6"/><path transform="translate(464,350)" d="M0,0L0,6"/><path transform="translate(478,350)" d="M0,0L0,6"/><path transform="translate(492,350)" d="M0,0L0,6"/><path transform="translate(506,350)" d="M0,0L0,6"/><path transform="translate(520,350)" d="M0,0L0,6"/><path transform="translate(534,350)" d="M0,0L0,6"/><path transform="translate(548,350)" d="M0,0L0,6"/><path transform="translate(562,350)" d="M0,0L0,6"/><path transform="translate(576,350)" d="M0,0L0,6"/><path transform="translate(590,350)" d="M0,0L0,6"/><path transform="translate(604,350)" d="M0,0L0,6"/><path transform="translate(618,350)" d="M0,0L0,6"/><path transform="translate(632,350)" d="M0,0L0,6"/><path transform="translate(646,350)" d="M0,0L0,6"/><path transform="translate(660,350)" d="M0,0L0,6"/><path transform="translate(674,350)" d="M0,0L0,6"/><path transform="translate(688,350)" d="M0,0L0,6"/><path transform="translate(702,350)" d="M0,0L0,6"/><path transform="translate(716,350)" d="M0,0L0,6"/><path transform="translate(730,350)" d="M0,0L0,6"/><path transform="translate(744,350)" d="M0,0L0,6"/><path transform="translate(758,350)" d="M0,0L0,6"/><path transform="translate(772,350)" d="M0,0L0,6"/><path transform="translate(786,350)" d="M0,0L0,6"/><path transform="translate(800,350)" d="M0,0L0,6"/><path transform="translate(814,350)" d="M0,0L0,6"/><path transform="translate(828,350)" d="M0,0L0,6"/><path transform="translate(842,350)" d="M0,0L0,6"/><path transform="translate(856,350)" d="M0,0L0,6"/><path transform="translate(870,350)" d="M0,0L0,6"/><path transform="translate(884,350)" d="M0,0L0,6"/><path transform="translate(898,350)" d="M0,0L0,6"/><path transform="translate(912,350)" d="M0,0L0,6"/><path transform="translate(926,350)" d="M0,0L0,6"/><path transform="translate(940,350)" d="M0,0L0,6"/><path transform="translate(954,350)" d="M0,0L0,6"/><path transform="translate(968,350)" d="M0,0L0,6"/><path transform="translate(982,350)" d="M0,0L0,6"/><path transform="translate(996,350)" d="M0,0L0,6"/><path transform="translate(1010,350)" d="M0,0L0,6"/><path transform="translate(1024,350)" d="M0,0L0,6"/><path transform="translate(1038,350)" d="M0,0L0,6"/><path transform="translate(1052,350)" d="M0,0L0,6"/><path transform="translate(1066,350)" d="M0,0L0,6"/><path transform="translate(1080,350)" d="M0,0L0,6"/><path transform="translate(1094,350)" d="M0,0L0,6"/><path transform="translate(1108,350)" d="M0,0L0,6"/><path transform="translate(1122,350)" d="M0,0L0,6"/><path transform="translate(1136,350)" d="M0,0L0,6"/><path transform="translate(1150,350)" d="M0,0L0,6"/><path transform="translate(1164,350)" d="M0,0L0,6"/></g><g aria-label="x-axis tick label" text-anchor="end" transform="translate(6.5,9)"><text y="0.32em" transform="translate(44,350) rotate(-90)">1945</text><text y="0.32em" transform="translate(58,350) rotate(-90)">1946</text><text y="0.32em" transform="translate(72,350) rotate(-90)">1947</text><text y="0.32em" transform="translate(86,350) rotate(-90)">1948</text><text y="0.32em" transform="translate(100,350) rotate(-90)">1949</text><text y="0.32em" transform="translate(114,350) rotate(-90)">1950</text><text y="0.32em" transform="translate(128,350) rotate(-90)">1951</text><text y="0.32em" transform="translate(142,350) rotate(-90)">1952</text><text y="0.32em" transform="translate(156,350) rotate(-90)">1953</text><text y="0.32em" transform="translate(170,350) rotate(-90)">1954</text><text y="0.32em" transform="translate(184,350) rotate(-90)">1955</text><text y="0.32em" transform="translate(198,350) rotate(-90)">1956</text><text y="0.32em" transform="translate(212,350) rotate(-90)">1957</text><text y="0.32em" transform="translate(226,350) rotate(-90)">1958</text><text y="0.32em" transform="translate(240,350) rotate(-90)">1959</text><text y="0.32em" transform="translate(254,350) rotate(-90)">1960</text><text y="0.32em" transform="translate(268,350) rotate(-90)">1961</text><text y="0.32em" transform="translate(282,350) rotate(-90)">1962</text><text y="0.32em" transform="translate(296,350) rotate(-90)">1963</text><text y="0.32em" transform="translate(310,350) rotate(-90)">1964</text><text y="0.32em" transform="translate(324,350) rotate(-90)">1965</text><text y="0.32em" transform="translate(338,350) rotate(-90)">1966</text><text y="0.32em" transform="translate(352,350) rotate(-90)">1967</text><text y="0.32em" transform="translate(366,350) rotate(-90)">1968</text><text y="0.32em" transform="translate(380,350) rotate(-90)">1969</text><text y="0.32em" transform="translate(394,350) rotate(-90)">1970</text><text y="0.32em" transform="translate(408,350) rotate(-90)">1971</text><text y="0.32em" transform="translate(422,350) rotate(-90)">1972</text><text y="0.32em" transform="translate(436,350) rotate(-90)">1973</text><text y="0.32em" transform="translate(450,350) rotate(-90)">1974</text><text y="0.32em" transform="translate(464,350) rotate(-90)">1975</text><text y="0.32em" transform="translate(478,350) rotate(-90)">1976</text><text y="0.32em" transform="translate(492,350) rotate(-90)">1977</text><text y="0.32em" transform="translate(506,350) rotate(-90)">1978</text><text y="0.32em" transform="translate(520,350) rotate(-90)">1979</text><text y="0.32em" transform="translate(534,350) rotate(-90)">1980</text><text y="0.32em" transform="translate(548,350) rotate(-90)">1981</text><text y="0.32em" transform="translate(562,350) rotate(-90)">1982</text><text y="0.32em" transform="translate(576,350) rotate(-90)">1983</text><text y="0.32em" transform="translate(590,350) rotate(-90)">1984</text><text y="0.32em" transform="translate(604,350) rotate(-90)">1985</text><text y="0.32em" transform="translate(618,350) rotate(-90)">1986</text><text y="0.32em" transform="translate(632,350) rotate(-90)">1987</text><text y="0.32em" transform="translate(646,350) rotate(-90)">1988</text><text y="0.32em" transform="translate(660,350) rotate(-90)">1989</text><text y="0.32em" transform="translate(674,350) rotate(-90)">1990</text><text y="0.32em" transform="translate(688,350) rotate(-90)">1991</text><text y="0.32em" transform="translate(702,350) rotate(-90)">1992</text><text y="0.32em" transform="translate(716,350) rotate(-90)">1993</text><text y="0.32em" transform="translate(730,350) rotate(-90)">1994</text><text y="0.32em" transform="translate(744,350) rotate(-90)">1995</text><text y="0.32em" transform="translate(758,350) rotate(-90)">1996</text><text y="0.32em" transform="translate(772,350) rotate(-90)">1997</text><text y="0.32em" transform="translate(786,350) rotate(-90)">1998</text><text y="0.32em" transform="translate(800,350) rotate(-90)">1999</text><text y="0.32em" transform="translate(814,350) rotate(-90)">2000</text><text y="0.32em" transform="translate(828,350) rotate(-90)">2001</text><text y="0.32em" transform="translate(842,350) rotate(-90)">2002</text><text y="0.32em" transform="translate(856,350) rotate(-90)">2003</text><text y="0.32em" transform="translate(870,350) rotate(-90)">2004</text><text y="0.32em" transform="translate(884,350) rotate(-90)">2005</text><text y="0.32em" transform="translate(898,350) rotate(-90)">2006</text><text y="0.32em" transform="translate(912,350) rotate(-90)">2007</text><text y="0.32em" transform="translate(926,350) rotate(-90)">2008</text><text y="0.32em" transform="translate(940,350) rotate(-90)">2009</text><text y="0.32em" transform="translate(954,350) rotate(-90)">2010</text><text y="0.32em" transform="translate(968,350) rotate(-90)">2011</text><text y="0.32em" transform="translate(982,350) rotate(-90)">2012</text><text y="0.32em" transform="translate(996,350) rotate(-90)">2013</text><text y="0.32em" transform="translate(1010,350) rotate(-90)">2014</text><text y="0.32em" transform="translate(1024,350) rotate(-90)">2015</text><text y="0.32em" transform="translate(1038,350) rotate(-90)">2016</text><text y="0.32em" transform="translate(1052,350) rotate(-90)">2017</text><text y="0.32em" transform="translate(1066,350) rotate(-90)">2018</text><text y="0.32em" transform="translate(1080,350) rotate(-90)">2019</text><text y="0.32em" transform="translate(1094,350) rotate(-90)">2020</text><text y="0.32em" transform="translate(1108,350) rotate(-90)">2021</text><text y="0.32em" transform="translate(1122,350) rotate(-90)">2022</text><text y="0.32em" transform="translate(1136,350) rotate(-90)">2023</text><text y="0.32em" transform="translate(1150,350) rotate(-90)">2024</text><text y="0.32em" transform="translate(1164,350) rotate(-90)">2025</text></g><g aria-label="x-axis label" transform="translate(0,47)"><text transform="translate(610,350)">Year</text></g><g aria-label="rule" stroke="currentColor"><line x1="40" x2="1180" y1="350" y2="350"/></g><g aria-label="bar" fill="gray"><rect x="44" width="13" y="260" height="90"/><rect x="58" width="13" y="289.99999999999994" height="60.00000000000006"/><rect x="72" width="13" y="230" height="120"/><rect x="86" width="13" y="200" height="150"/><rect x="114" width="13" y="320" height="30"/><rect x="128" width="13" y="320" height="30"/><rect x="142" width="13" y="289.99999999999994" height="60.00000000000006"/><rect x="156" width="13" y="320" height="30"/><rect x="170" width="13" y="230" height="120"/><rect x="184" width="13" y="230" height="120"/><rect x="198" width="13" y="320" height="30"/><rect x="212" width="13" y="320" height="30"/><rect x="226" width="13" y="200" height="150"/><rect x="240" width="13" y="289.99999999999994" height="60.00000000000006"/><rect x="254" width="13" y="230" height="120"/><rect x="268" width="13" y="200" height="150"/><rect x="282" width="13" y="110" height="240"/><rect x="296" width="13" y="289.99999999999994" height="60.00000000000006"/><rect x="310" width="13" y="170" height="180"/><rect x="324" width="13" y="170" height="180"/><rect x="338" width="13" y="140" height="210"/><rect x="352" width="13" y="260" height="90"/><rect x="366" width="13" y="170" height="180"/><rect x="380" width="13" y="260" height="90"/><rect x="394" width="13" y="230" height="120"/><rect x="408" width="13" y="230" height="120"/><rect x="422" width="13" y="260" height="90"/><rect x="436" width="13" y="170" height="180"/><rect x="450" width="13" y="320" height="30"/><rect x="464" width="13" y="289.99999999999994" height="60.00000000000006"/><rect x="478" width="13" y="320" height="30"/><rect x="492" width="13" y="260" height="90"/><rect x="506" width="13" y="140" height="210"/><rect x="520" width="13" y="170" height="180"/><rect x="534" width="13" y="79.99999999999999" height="270"/><rect x="548" width="13" y="320" height="30"/><rect x="562" width="13" y="260" height="90"/><rect x="576" width="13" y="200" height="150"/><rect x="590" width="13" y="320" height="30"/><rect x="604" width="13" y="289.99999999999994" height="60.00000000000006"/><rect x="618" width="13" y="260" height="90"/><rect x="632" width="13" y="170" height="180"/><rect x="646" width="13" y="260" height="90"/><rect x="660" width="13" y="79.99999999999999" height="270"/><rect x="716" width="13" y="140" height="210"/><rect x="730" width="13" y="260" height="90"/><rect x="744" width="13" y="230" height="120"/><rect x="758" width="13" y="140" height="210"/><rect x="772" width="13" y="260" height="90"/><rect x="786" width="13" y="320" height="30"/><rect x="814" width="13" y="140" height="210"/><rect x="828" width="13" y="320" height="30"/><rect x="842" width="13" y="260" height="90"/><rect x="856" width="13" y="230" height="120"/><rect x="870" width="13" y="140" height="210"/><rect x="884" width="13" y="289.99999999999994" height="60.00000000000006"/><rect x="912" width="13" y="289.99999999999994" height="60.00000000000006"/><rect x="926" width="13" y="289.99999999999994" height="60.00000000000006"/><rect x="940" width="13" y="260" height="90"/><rect x="954" width="13" y="20" height="330"/><rect x="968" width="13" y="289.99999999999994" height="60.00000000000006"/><rect x="982" width="13" y="320" height="30"/><rect x="996" width="13" y="230" height="120"/><rect x="1010" width="13" y="170" height="180"/><rect x="1024" width="13" y="170" height="180"/><rect x="1038" width="13" y="289.99999999999994" height="60.00000000000006"/><rect x="1052" width="13" y="260" height="90"/><rect x="1066" width="13" y="140" height="210"/><rect x="1094" width="13" y="320" height="30"/><rect x="1108" width="13" y="320" height="30"/><rect x="1122" width="13" y="260" height="90"/><rect x="1164" width="13" y="289.99999999999994" height="60.00000000000006"/></g></svg>