<svg class="plot-d6a7b5" fill="currentColor" font-family="system-ui, sans-serif" font-size="10" text-anchor="middle" width="640" height="400" viewBox="0 0 640 400" xmlns="http://www.w3.org/2000/svg" xmlns:xlink="http://www.w3.org/1999/xlink"><style>:where(.plot-d6a7b5) {
  --plot-background: white;
  display: block;
  height: auto;
  height: intrinsic;
  max-width: 100%;
}
:where(.plot-d6a7b5 text),
:where(.plot-d6a7b5 tspan) {
  white-space: pre;
}</style><g aria-label="y-grid" aria-hidden="true" stroke="currentColor" stroke-opacity="0.1"><line x1="40" x2="620" y1="348.7878787878788" y2="348.7878787878788"/><line x1="40" x2="620" y1="295.75757575757575" y2="295.75757575757575"/><line x1="40" x2="620" y1="242.72727272727272" y2="242.72727272727272"/><line x1="40" x2="620" y1="189.69696969696972" y2="189.69696969696972"/><line x1="40" x2="620" y1="136.66666666666669" y2="136.66666666666669"/><line x1="40" x2="620" y1="83.63636363636361" y2="83.63636363636361"/><line x1="40" x2="620" y1="30.606060606060595" y2="30.606060606060595"/></g><g aria-label="y-axis tick" aria-hidden="true" fill="none" stroke="currentColor"><path transform="translate(40,348.7878787878788)" d="M0,0L-6,0"/><path transform="translate(40,295.75757575757575)" d="M0,0L-6,0"/><path transform="translate(40,242.72727272727272)" d="M0,0L-6,0"/><path transform="translate(40,189.69696969696972)" d="M0,0L-6,0"/><path transform="translate(40,136.66666666666669)" d="M0,0L-6,0"/><path transform="translate(40,83.63636363636361)" d="M0,0L-6,0"/><path transform="translate(40,30.606060606060595)" d="M0,0L-6,0"/></g><g aria-label="y-axis tick label" text-anchor="end" font-variant="tabular-nums" transform="translate(-9,0)"><text y="0.32em" transform="translate(40,348.7878787878788)">75</text><text y="0.32em" transform="translate(40,295.75757575757575)">80</text><text y="0.32em" transform="translate(40,242.72727272727272)">85</text><text y="0.32em" transform="translate(40,189.69696969696972)">90</text><text y="0.32em" transform="translate(40,136.66666666666669)">95</text><text y="0.32em" transform="translate(40,83.63636363636361)">100</text><text y="0.32em" transform="translate(40,30.606060606060595)">105</text></g><g aria-label="y-axis label" text-anchor="start" transform="translate(-37,-17)"><text y="0.71em" transform="translate(40,20)">↑ Maximum Temperature (˚F)</text></g><g aria-label="x-axis tick" aria-hidden="true" fill="none" stroke="currentColor"><path transform="translate(83.5,370)" d="M0,0L0,6"/><path transform="translate(156,370)" d="M0,0L0,6"/><path transform="translate(228.5,370)" d="M0,0L0,6"/><path transform="translate(301,370)" d="M0,0L0,6"/><path transform="translate(373.5,370)" d="M0,0L0,6"/><path transform="translate(446,370)" d="M0,0L0,6"/><path transform="translate(518.5,370)" d="M0,0L0,6"/><path transform="translate(591,370)" d="M0,0L0,6"/></g><g aria-label="x-axis tick label" font-variant="tabular-nums" transform="translate(0,9)"><text y="0.71em" transform="translate(83.5,370)">1950</text><text y="0.71em" transform="translate(156,370)">1960</text><text y="0.71em" transform="translate(228.5,370)">1970</text><text y="0.71em" transform="translate(301,370)">1980</text><text y="0.71em" transform="translate(373.5,370)">1990</text><text y="0.71em" transform="translate(446,370)">2000</text><text y="0.71em" transform="translate(518.5,370)">2010</text><text y="0.71em" transform="translate(591,370)">2020</text></g><g aria-label="x-axis label" text-anchor="end" transform="translate(17,27)"><text transform="translate(620,370)">Year →</text></g><g aria-label="line" fill="none" stroke="red" stroke-width="2" stroke-linejoin="round" stroke-linecap="round"><path d="M40,157.879L47.25,189.697L54.5,295.758L61.75,189.697L69,83.636L76.25,147.273L83.5,168.485L90.75,200.303L98,147.273L105.25,179.091L112.5,115.455L119.75,157.879L127,147.273L134.25,147.273L141.5,232.121L148.75,232.121L156,253.333L163.25,221.515L170.5,285.152L177.75,232.121L185,253.333L192.25,221.515L199.5,168.485L206.75,263.939L214,370L221.25,147.273L228.5,327.576L235.75,221.515L243,327.576L250.25,210.909L257.5,242.727L264.75,253.333L272,306.364L279.25,136.667L286.5,295.758L293.75,295.758L301,168.485L308.25,189.697L315.5,316.97L322.75,200.303L330,200.303L337.25,242.727L344.5,200.303L351.75,189.697L359,253.333L366.25,274.545L373.5,126.061L380.75,200.303L388,210.909L395.25,136.667L402.5,179.091L409.75,200.303L417,253.333L424.25,221.515L431.5,253.333L438.75,62.424L446,168.485L453.25,210.909L460.5,83.636L467.75,189.697L475,157.879L482.25,115.455L489.5,168.485L496.75,168.485L504,221.515L511.25,274.545L518.5,115.455L525.75,168.485L533,73.03L540.25,200.303L547.5,263.939L554.75,189.697L562,136.667L569.25,200.303L576.5,136.667L583.75,179.091L591,168.485L598.25,189.697L605.5,104.848L612.75,168.485L620,20"/></g><g aria-label="linear-regression" fill="gray" fill-opacity="0" stroke="gray" stroke-linejoin="round" stroke-linecap="round" stroke-dasharray="3" stroke-dashoffset="2"><path stroke="none" d="M40,196.167L44,196.083L48,195.999L52,195.913L56,195.826L60,195.739L64,195.65L68,195.559L72,195.468L76,195.375L80,195.281L84,195.185L88,195.088L92,194.99L96,194.89L100,194.788L104,194.685L108,194.58L112,194.473L116,194.365L120,194.255L124,194.142L128,194.028L132,193.911L136,193.793L140,193.672L144,193.549L148,193.423L152,193.295L156,193.164L160,193.031L164,192.895L168,192.756L172,192.614L176,192.469L180,192.32L184,192.169L188,192.014L192,191.855L196,191.693L200,191.527L204,191.357L208,191.183L212,191.005L216,190.822L220,190.635L224,190.443L228,190.247L232,190.045L236,189.839L240,189.627L244,189.409L248,189.187L252,188.958L256,188.723L260,188.483L264,188.236L268,187.983L272,187.723L276,187.457L280,187.183L284,186.903L288,186.616L292,186.322L296,186.02L300,185.711L304,185.394L308,185.07L312,184.738L316,184.398L320,184.051L324,183.695L328,183.332L332,182.961L336,182.582L340,182.195L344,181.801L348,181.398L352,180.988L356,180.57L360,180.145L364,179.712L368,179.271L372,178.823L376,178.369L380,177.907L384,177.438L388,176.962L392,176.479L396,175.99L400,175.495L404,174.993L408,174.486L412,173.972L416,173.453L420,172.928L424,172.398L428,171.862L432,171.322L436,170.776L440,170.226L444,169.671L448,169.111L452,168.547L456,167.979L460,167.407L464,166.831L468,166.251L472,165.667L476,165.08L480,164.489L484,163.896L488,163.298L492,162.698L496,162.095L500,161.489L504,160.88L508,160.269L512,159.655L516,159.038L520,158.419L524,157.798L528,157.175L532,156.549L536,155.921L540,155.291L544,154.66L548,154.026L552,153.39L556,152.753L560,152.114L564,151.474L568,150.832L572,150.188L576,149.543L580,148.896L584,148.248L588,147.599L592,146.948L596,146.296L600,145.643L604,144.989L608,144.333L612,143.677L616,143.019L620,142.36L620,198.416L616,198.5L612,198.584L608,198.67L604,198.756L600,198.844L596,198.933L592,199.024L588,199.115L584,199.208L580,199.302L576,199.398L572,199.494L568,199.593L564,199.693L560,199.795L556,199.898L552,200.003L548,200.109L544,200.218L540,200.328L536,200.441L532,200.555L528,200.672L524,200.79L520,200.911L516,201.034L512,201.16L508,201.288L504,201.419L500,201.552L496,201.688L492,201.827L488,201.969L484,202.114L480,202.263L476,202.414L472,202.569L468,202.728L464,202.89L460,203.056L456,203.226L452,203.4L448,203.578L444,203.761L440,203.948L436,204.14L432,204.336L428,204.538L424,204.744L420,204.956L416,205.173L412,205.396L408,205.625L404,205.859L400,206.1L396,206.347L392,206.6L388,206.86L384,207.126L380,207.399L376,207.68L372,207.967L368,208.261L364,208.563L360,208.872L356,209.189L352,209.513L348,209.845L344,210.185L340,210.532L336,210.888L332,211.251L328,211.622L324,212.001L320,212.388L316,212.782L312,213.185L308,213.595L304,214.013L300,214.438L296,214.871L292,215.312L288,215.759L284,216.214L280,216.676L276,217.145L272,217.621L268,218.104L264,218.592L260,219.088L256,219.589L252,220.097L248,220.611L244,221.13L240,221.655L236,222.185L232,222.72L228,223.261L224,223.807L220,224.357L216,224.912L212,225.472L208,226.036L204,226.604L200,227.176L196,227.752L192,228.332L188,228.916L184,229.503L180,230.093L176,230.687L172,231.284L168,231.885L164,232.488L160,233.094L156,233.703L152,234.314L148,234.928L144,235.545L140,236.164L136,236.785L132,237.408L128,238.034L124,238.662L120,239.292L116,239.923L112,240.557L108,241.192L104,241.83L100,242.469L96,243.109L92,243.751L88,244.395L84,245.04L80,245.687L76,246.335L72,246.984L68,247.635L64,248.287L60,248.94L56,249.594L52,250.25L48,250.906L44,251.564L40,252.223Z"/><path fill="none" d="M40,224.19461096967842L620,170.38825472429826"/></g></svg>