<svg class="plot-d6a7b5" fill="currentColor" font-family="system-ui, sans-serif" font-size="10" text-anchor="middle" width="1200" height="400" viewBox="0 0 1200 400" xmlns="http://www.w3.org/2000/svg" xmlns:xlink="http://www.w3.org/1999/xlink"><style>:where(.plot-d6a7b5) {
  --plot-background: white;
  display: block;
  height: auto;
  height: intrinsic;
  max-width: 100%;
}
:where(.plot-d6a7b5 text),
:where(.plot-d6a7b5 tspan) {
  white-space: pre;
}</style><g aria-label="y-grid" aria-hidden="true" stroke="currentColor" stroke-opacity="0.1"><line x1="40" x2="1180" y1="350" y2="350"/><line x1="40" x2="1180" y1="326.5124555160142" y2="326.5124555160142"/><line x1="40" x2="1180" y1="303.02491103202846" y2="303.02491103202846"/><line x1="40" x2="1180" y1="279.5373665480427" y2="279.5373665480427"/><line x1="40" x2="1180" y1="256.04982206405697" y2="256.04982206405697"/><line x1="40" x2="1180" y1="232.5622775800712" y2="232.5622775800712"/><line x1="40" x2="1180" y1="209.07473309608542" y2="209.07473309608542"/><line x1="40" x2="1180" y1="185.58718861209962" y2="185.58718861209962"/><line x1="40" x2="1180" y1="162.09964412811388" y2="162.09964412811388"/><line x1="40" x2="1180" y1="138.6120996441281" y2="138.6120996441281"/><line x1="40" x2="1180" y1="115.12455516014234" y2="115.12455516014234"/><line x1="40" x2="1180" y1="91.63701067615658" y2="91.63701067615658"/><line x1="40" x2="1180" y1="68.14946619217082" y2="68.14946619217082"/><line x1="40" x2="1180" y1="44.66192170818505" y2="44.66192170818505"/><line x1="40" x2="1180" y1="21.174377224199247" y2="21.174377224199247"/></g><g aria-label="y-axis tick" aria-hidden="true" fill="none" stroke="currentColor"><path transform="translate(40,350)" d="M0,0L-6,0"/><path transform="translate(40,326.5124555160142)" d="M0,0L-6,0"/><path transform="translate(40,303.02491103202846)" d="M0,0L-6,0"/><path transform="translate(40,279.5373665480427)" d="M0,0L-6,0"/><path transform="translate(40,256.04982206405697)" d="M0,0L-6,0"/><path transform="translate(40,232.5622775800712)" d="M0,0L-6,0"/><path transform="translate(40,209.07473309608542)" d="M0,0L-6,0"/><path transform="translate(40,185.58718861209962)" d="M0,0L-6,0"/><path transform="translate(40,162.09964412811388)" d="M0,0L-6,0"/><path transform="translate(40,138.6120996441281)" d="M0,0L-6,0"/><path transform="translate(40,115.12455516014234)" d="M0,0L-6,0"/><path transform="translate(40,91.63701067615658)" d="M0,0L-6,0"/><path transform="translate(40,68.14946619217082)" d="M0,0L-6,0"/><path transform="translate(40,44.66192170818505)" d="M0,0L-6,0"/><path transform="translate(40,21.174377224199247)" d="M0,0L-6,0"/></g><g aria-label="y-axis tick label" text-anchor="end" font-variant="tabular-nums" transform="translate(-9,0)"><text y="0.32em" transform="translate(40,350)">0</text><text y="0.32em" transform="translate(40,326.5124555160142)">2</text><text y="0.32em" transform="translate(40,303.02491103202846)">4</text><text y="0.32em" transform="translate(40,279.5373665480427)">6</text><text y="0.32em" transform="translate(40,256.04982206405697)">8</text><text y="0.32em" transform="translate(40,232.5622775800712)">10</text><text y="0.32em" transform="translate(40,209.07473309608542)">12</text><text y="0.32em" transform="translate(40,185.58718861209962)">14</text><text y="0.32em" transform="translate(40,162.09964412811388)">16</text><text y="0.32em" transform="translate(40,138.6120996441281)">18</text><text y="0.32em" transform="translate(40,115.12455516014234)">20</text><text y="0.32em" transform="translate(40,91.63701067615658)">22</text><text y="0.32em" transform="translate(40,68.14946619217082)">24</text><text y="0.32em" transform="translate(40,44.66192170818505)">26</text><text y="0.32em" transform="translate(40,21.174377224199247)">28</text></g><g aria-label="y-axis label" text-anchor="start" transform="translate(-37,-17)"><text y="0.71em" transform="translate(40,20)">↑ Total Snowfall (inches)</text></g><g aria-label="x-axis tick" aria-hidden="true" fill="none" stroke="currentColor" transform="translate(6.5,0)"><path transform="translate(44,350)" d="M0,0L0,6"/><path transform="translate(58,350)" d="M0,0L0,6"/><path transform="translate(72,350)" d="M0,0L0,6"/><path transform="translate(86,350)" d="M0,0L0,6"/><path transform="translate(100,350)" d="M0,0L0,6"/><path transform="translate(114,350)" d="M0,0L0,6"/><path transform="translate(128,350)" d="M0,0L0,6"/><path transform="translate(142,350)" d="M0,0L0,6"/><path transform="translate(156,350)" d="M0,0L0,6"/><path transform="translate(170,350)" d="M0,0L0,6"/><path transform="translate(184,350)" d="M0,0L0,6"/><path transform="translate(198,350)" d="M0,0L0,6"/><path transform="translate(212,350)" d="M0,0L0,6"/><path transform="translate(226,350)" d="M0,0L0,6"/><path transform="translate(240,350)" d="M0,0L0,6"/><path transform="translate(254,350)" d="M0,0L0,6"/><path transform="translate(268,350)" d="M0,0L0,6"/><path transform="translate(282,350)" d="M0,0L0,6"/><path transform="translate(296,350)" d="M0,0L0,6"/><path transform="translate(310,350)" d="M0,0L0,6"/><path transform="translate(324,350)" d="M0,0L0,6"/><path transform="translate(338,350)" d="M0,0L0,6"/><path transform="translate(352,350)" d="M0,0L0,6"/><path transform="translate(366,350)" d="M0,0L0,6"/><path transform="translate(380,350)" d="M0,0L0,6"/><path transform="translate(394,350)" d="M0,0L0,6"/><path transform="translate(408,350)" d="M0,0L0,6"/><path transform="translate(422,350)" d="M0,0L0,6"/><path transform="translate(436,350)" d="M0,0L0,6"/><path transform="translate(450,350)" d="M0,0L0,6"/><path transform="translate(464,350)" d="M0,0L0,6"/><path transform="translate(478,350)" d="M0,0L0,6"/><path transform="translate(492,350)" d="M0,0L0,6"/><path transform="translate(506,350)" d="M0,0L0,6"/><path transform="translate(520,350)" d="M0,0L0,6"/><path transform="translate(534,350)" d="M0,0L0,6"/><path transform="translate(548,350)" d="M0,0L0,6"/><path transform="translate(562,350)" d="M0,0L0,6"/><path transform="translate(576,350)" d="M0,0L0,6"/><path transform="translate(590,350)" d="M0,0L0,6"/><path transform="translate(604,350)" d="M0,0L0,6"/><path transform="translate(618,350)" d="M0,0L0,6"/><path transform="translate(632,350)" d="M0,0L0,6"/><path transform="translate(646,350)" d="M0,0L0,6"/><path transform="translate(660,350)" d="M0,0L0,6"/><path transform="translate(674,350)" d="M0,0L0,6"/><path transform="translate(688,350)" d="M0,0L0,6"/><path transform="translate(702,350)" d="M0,0L0,6"/><path transform="translate(716,350)" d="M0,0L0,6"/><path transform="translate(730,350)" d="M0,0L0,6"/><path transform="translate(744,350)" d="M0,0L0,6"/><path transform="translate(758,350)" d="M0,0L0,6"/><path transform="translate(772,350)" d="M0,0L0,6"/><path transform="translate(786,350)" d="M0,0L0,6"/><path transform="translate(800,350)" d="M0,0L0,6"/><path transform="translate(814,350)" d="M0,0L0,6"/><path transform="translate(828,350)" d="M0,0L0,6"/><path transform="translate(842,350)" d="M0,0L0,6"/><path transform="translate(856,350)" d="M0,0L0,6"/><path transform="translate(870,350)" d="M0,0L0,6"/><path transform="translate(884,350)" d="M0,0L0,6"/><path transform="translate(898,350)" d="M0,0L0,6"/><path transform="translate(912,350)" d="M0,0L0,6"/><path transform="translate(926,350)" d="M0,0L0,6"/><path transform="translate(940,350)" d="M0,0L0,6"/><path transform="translate(954,350)" d="M0,0L0,6"/><path transform="translate(968,350)" d="M0,0L0,6"/><path transform="translate(982,350)" d="M0,0L0,6"/><path transform="translate(996,350)" d="M0,0L0,6"/><path transform="translate(1010,350)" d="M0,0L0,6"/><path transform="translate(1024,350)" d="M0,0L0,6"/><path transform="translate(1038,350)" d="M0,0L0,6"/><path transform="translate(1052,350)" d="M0,0L0,6"/><path transform="translate(1066,350)" d="M0,0L0,6"/><path transform="translate(1080,350)" d="M0,0L0,6"/><path transform="translate(1094,350)" d="M0,0L0,6"/><path transform="translate(1108,350)" d="M0,0L0,6"/><path transform="translate(1122,350)" d="M0,0L0,6"/><path transform="translate(1136,350)" d="M0,0L0,6"/><path transform="translate(1150,350)" d="M0,0L0,6"/><path transform="translate(1164,350)" d="M0,0L0,6"/></g><g aria-label="x-axis tick label" text-anchor="end" transform="translate(6.5,9)"><text y="0.32em" transform="translate(44,350) rotate(-90)">1945</text><text y="0.32em" transform="translate(58,350) rotate(-90)">1946</text><text y="0.32em" transform="translate(72,350) rotate(-90)">1947</text><text y="0.32em" transform="translate(86,350) rotate(-90)">1948</text><text y="0.32em" transform="translate(100,350) rotate(-90)">1949</text><text y="0.32em" transform="translate(114,350) rotate(-90)">1950</text><text y="0.32em" transform="translate(128,350) rotate(-90)">1951</text><text y="0.32em" transform="translate(142,350) rotate(-90)">1952</text><text y="0.32em" transform="translate(156,350) rotate(-90)">1953</text><text y="0.32em" transform="translate(170,350) rotate(-90)">1954</text><text y="0.32em" transform="translate(184,350) rotate(-90)">1955</text><text y="0.32em" transform="translate(198,350) rotate(-90)">1956</text><text y="0.32em" transform="translate(212,350) rotate(-90)">1957</text><text y="0.32em" transform="translate(226,350) rotate(-90)">1958</text><text y="0.32em" transform="translate(240,350) rotate(-90)">1959</text><text y="0.32em" transform="translate(254,350) rotate(-90)">1960</text><text y="0.32em" transform="translate(268,350) rotate(-90)">1961</text><text y="0.32em" transform="translate(282,350) rotate(-90)">1962</text><text y="0.32em" transform="translate(296,350) rotate(-90)">1963</text><text y="0.32em" transform="translate(310,350) rotate(-90)">1964</text><text y="0.32em" transform="translate(324,350) rotate(-90)">1965</text><text y="0.32em" transform="translate(338,350) rotate(-90)">1966</text><text y="0.32em" transform="translate(352,350) rotate(-90)">1967</text><text y="0.32em" transform="translate(366,350) rotate(-90)">1968</text><text y="0.32em" transform="translate(380,350) rotate(-90)">1969</text><text y="0.32em" transform="translate(394,350) rotate(-90)">1970</text><text y="0.32em" transform="translate(408,350) rotate(-90)">1971</text><text y="0.32em" transform="translate(422,350) rotate(-90)">1972</text><text y="0.32em" transform="translate(436,350) rotate(-90)">1973</text><text y="0.32em" transform="translate(450,350) rotate(-90)">1974</text><text y="0.32em" transform="translate(464,350) rotate(-90)">1975</text><text y="0.32em" transform="translate(478,350) rotate(-90)">1976</text><text y="0.32em" transform="translate(492,350) rotate(-90)">1977</text><text y="0.32em" transform="translate(506,350) rotate(-90)">1978</text><text y="0.32em" transform="translate(520,350) rotate(-90)">1979</text><text y="0.32em" transform="translate(534,350) rotate(-90)">1980</text><text y="0.32em" transform="translate(548,350) rotate(-90)">1981</text><text y="0.32em" transform="translate(562,350) rotate(-90)">1982</text><text y="0.32em" transform="translate(576,350) rotate(-90)">1983</text><text y="0.32em" transform="translate(590,350) rotate(-90)">1984</text><text y="0.32em" transform="translate(604,350) rotate(-90)">1985</text><text y="0.32em" transform="translate(618,350) rotate(-90)">1986</text><text y="0.32em" transform="translate(632,350) rotate(-90)">1987</text><text y="0.32em" transform="translate(646,350) rotate(-90)">1988</text><text y="0.32em" transform="translate(660,350) rotate(-90)">1989</text><text y="0.32em" transform="translate(674,350) rotate(-90)">1990</text><text y="0.32em" transform="translate(688,350) rotate(-90)">1991</text><text y="0.32em" transform="translate(702,350) rotate(-90)">1992</text><text y="0.32em" transform="translate(716,350) rotate(-90)">1993</text><text y="0.32em" transform="translate(730,350) rotate(-90)">1994</text><text y="0.32em" transform="translate(744,350) rotate(-90)">1995</text><text y="0.32em" transform="translate(758,350) rotate(-90)">1996</text><text y="0.32em" transform="translate(772,350) rotate(-90)">1997</text><text y="0.32em" transform="translate(786,350) rotate(-90)">1998</text><text y="0.32em" transform="translate(800,350) rotate(-90)">1999</text><text y="0.32em" transform="translate(814,350) rotate(-90)">2000</text><text y="0.32em" transform="translate(828,350) rotate(-90)">2001</text><text y="0.32em" transform="translate(842,350) rotate(-90)">2002</text><text y="0.32em" transform="translate(856,350) rotate(-90)">2003</text><text y="0.32em" transform="translate(870,350) rotate(-90)">2004</text><text y="0.32em" transform="translate(884,350) rotate(-90)">2005</text><text y="0.32em" transform="translate(898,350) rotate(-90)">2006</text><text y="0.32em" transform="translate(912,350) rotate(-90)">2007</text><text y="0.32em" transform="translate(926,350) rotate(-90)">2008</text><text y="0.32em" transform="translate(940,350) rotate(-90)">2009</text><text y="0.32em" transform="translate(954,350) rotate(-90)">2010</text><text y="0.32em" transform="translate(968,350) rotate(-90)">2011</text><text y="0.32em" transform="translate(982,350) rotate(-90)">2012</text><text y="0.32em" transform="translate(996,350) rotate(-90)">2013</text><text y="0.32em" transform="translate(1010,350) rotate(-90)">2014</text><text y="0.32em" transform="translate(1024,350) rotate(-90)">2015</text><text y="0.32em" transform="translate(1038,350) rotate(-90)">2016</text><text y="0.32em" transform="translate(1052,350) rotate(-90)">2017</text><text y="0.32em" transform="translate(1066,350) rotate(-90)">2018</text><text y="0.32em" transform="translate(1080,350) rotate(-90)">2019</text><text y="0.32em" transform="translate(1094,350) rotate(-90)">2020</text><text y="0.32em" transform="translate(1108,350) rotate(-90)">2021</text><text y="0.32em" transform="translate(1122,350) rotate(-90)">2022</text><text y="0.32em" transform="translate(1136,350) rotate(-90)">2023</text><text y="0.32em" transform="translate(1150,350) rotate(-90)">2024</text><text y="0.32em" transform="translate(1164,350) rotate(-90)">2025</text></g><g aria-label="x-axis label" transform="translate(0,47)"><text transform="translate(610,350)">Year</text></g><g aria-label="rule" stroke="currentColor"><line x1="40" x2="1180" y1="350" y2="350"/></g><g aria-label="bar" fill="lightblue"><rect x="44" width="13" y="292.45551601423483" height="57.54448398576517"/><rect x="58" width="13" y="286.5836298932384" height="63.416370106761576"/><rect x="72" width="13" y="304.19928825622776" height="45.80071174377224"/><rect x="86" width="13" y="62.277580071174356" height="287.7224199288256"/><rect x="100" width="13" y="350" height="0"/><rect x="114" width="13" y="346.47686832740214" height="3.523131672597856"/><rect x="128" width="13" y="335.9074733096086" height="14.092526690391423"/><rect x="142" width="13" y="294.80427046263344" height="55.19572953736656"/><rect x="156" width="13" y="342.95373665480423" height="7.046263345195769"/><rect x="170" width="13" y="245.48042704626334" height="104.51957295373666"/><rect x="184" width="13" y="180.8896797153025" height="169.1103202846975"/><rect x="198" width="13" y="326.5124555160142" height="23.4875444839858"/><rect x="212" width="13" y="338.2562277580071" height="11.743772241992872"/><rect x="226" width="13" y="144.48398576512457" height="205.51601423487543"/><rect x="240" width="13" y="315.94306049822063" height="34.05693950177937"/><rect x="254" width="13" y="130.39145907473306" height="219.60854092526694"/><rect x="268" width="13" y="287.7580071174378" height="62.241992882562215"/><rect x="282" width="13" y="178.54092526690388" height="171.45907473309612"/><rect x="296" width="13" y="267.7935943060498" height="82.20640569395022"/><rect x="310" width="13" y="304.19928825622776" height="45.80071174377224"/><rect x="324" width="13" y="196.15658362989325" height="153.84341637010675"/><rect x="338" width="13" y="199.6797153024911" height="150.3202846975089"/><rect x="352" width="13" y="220.81850533807827" height="129.18149466192173"/><rect x="366" width="13" y="277.18861209964416" height="72.81138790035584"/><rect x="380" width="13" y="231.38790035587186" height="118.61209964412814"/><rect x="394" width="13" y="319.46619217081854" height="30.533807829181455"/><rect x="408" width="13" y="244.30604982206404" height="105.69395017793596"/><rect x="422" width="13" y="303.02491103202846" height="46.975088967971544"/><rect x="436" width="13" y="184.41281138790035" height="165.58718861209965"/><rect x="450" width="13" y="315.94306049822063" height="34.05693950177937"/><rect x="464" width="13" y="312.4199288256228" height="37.580071174377224"/><rect x="478" width="13" y="345.30249110320284" height="4.69750889679716"/><rect x="492" width="13" y="307.7224199288256" height="42.277580071174384"/><rect x="506" width="13" y="225.51601423487543" height="124.48398576512457"/><rect x="520" width="13" y="143.30960854092524" height="206.69039145907476"/><rect x="534" width="13" y="98.68327402135228" height="251.31672597864772"/><rect x="548" width="13" y="319.46619217081854" height="30.533807829181455"/><rect x="562" width="13" y="272.491103202847" height="77.508896797153"/><rect x="576" width="13" y="211.423487544484" height="138.576512455516"/><rect x="590" width="13" y="268.96797153024914" height="81.03202846975086"/><rect x="604" width="13" y="301.8505338078292" height="48.14946619217079"/><rect x="618" width="13" y="339.4306049822064" height="10.569395017793624"/><rect x="632" width="13" y="216.1209964412811" height="133.8790035587189"/><rect x="646" width="13" y="263.0960854092526" height="86.90391459074738"/><rect x="660" width="13" y="178.54092526690388" height="171.45907473309612"/><rect x="674" width="13" y="350" height="0"/><rect x="688" width="13" y="350" height="0"/><rect x="702" width="13" y="350" height="0"/><rect x="716" width="13" y="284.2348754448398" height="65.76512455516018"/><rect x="730" width="13" y="334.7330960854093" height="15.266903914590728"/><rect x="744" width="13" y="324.16370106761565" height="25.836298932384352"/><rect x="758" width="13" y="178.5409252669039" height="171.4590747330961"/><rect x="772" width="13" y="340.6049822064057" height="9.39501779359432"/><rect x="786" width="13" y="326.5124555160142" height="23.4875444839858"/><rect x="800" width="13" y="350" height="0"/><rect x="814" width="13" y="20" height="330"/><rect x="828" width="13" y="346.47686832740214" height="3.523131672597856"/><rect x="842" width="13" y="196.15658362989316" height="153.84341637010684"/><rect x="856" width="13" y="290.1067615658363" height="59.89323843416372"/><rect x="870" width="13" y="175.01779359430603" height="174.98220640569397"/><rect x="884" width="13" y="339.4306049822064" height="10.569395017793624"/><rect x="898" width="13" y="350" height="0"/><rect x="912" width="13" y="331.20996441281136" height="18.79003558718864"/><rect x="926" width="13" y="339.4306049822064" height="10.569395017793624"/><rect x="940" width="13" y="270.1423487544484" height="79.85765124555161"/><rect x="954" width="13" y="159.7508896797153" height="190.2491103202847"/><rect x="968" width="13" y="341.779359430605" height="8.220640569395016"/><rect x="982" width="13" y="339.4306049822064" height="10.569395017793624"/><rect x="996" width="13" y="330.0355871886121" height="19.964412811387888"/><rect x="1010" width="13" y="281.88612099644126" height="68.11387900355874"/><rect x="1024" width="13" y="257.2241992882562" height="92.77580071174378"/><rect x="1038" width="13" y="333.55871886120997" height="16.441281138790032"/><rect x="1052" width="13" y="337.0818505338078" height="12.918149466192176"/><rect x="1066" width="13" y="144.48398576512457" height="205.51601423487543"/><rect x="1080" width="13" y="350" height="0"/><rect x="1094" width="13" y="320.6405693950178" height="29.359430604982208"/><rect x="1108" width="13" y="331.20996441281136" height="18.79003558718864"/><rect x="1122" width="13" y="318.2918149466192" height="31.708185053380816"/><rect x="1136" width="13" y="350" height="0"/><rect x="1150" width="13" y="350" height="0"/><rect x="1164" width="13" y="324.16370106761565" height="25.836298932384352"/></g></svg>