<svg class="plot-d6a7b5" fill="currentColor" font-family="system-ui, sans-serif" font-size="10" text-anchor="middle" width="640" height="400" viewBox="0 0 640 400" xmlns="http://www.w3.org/2000/svg" xmlns:xlink="http://www.w3.org/1999/xlink"><style>:where(.plot-d6a7b5) {
  --plot-background: white;
  display: block;
  height: auto;
  height: intrinsic;
  max-width: 100%;
}
:where(.plot-d6a7b5 text),
:where(.plot-d6a7b5 tspan) {
  white-space: pre;
}</style><g aria-label="y-grid" aria-hidden="true" stroke="currentColor" stroke-opacity="0.1"><line x1="40" x2="620" y1="370" y2="370"/><line x1="40" x2="620" y1="334.2857142857143" y2="334.2857142857143"/><line x1="40" x2="620" y1="298.57142857142856" y2="298.57142857142856"/><line x1="40" x2="620" y1="262.8571428571429" y2="262.8571428571429"/><line x1="40" x2="620" y1="227.14285714285714" y2="227.14285714285714"/><line x1="40" x2="620" y1="191.42857142857144" y2="191.42857142857144"/><line x1="40" x2="620" y1="155.71428571428572" y2="155.71428571428572"/><line x1="40" x2="620" y1="120" y2="120"/><line x1="40" x2="620" y1="84.28571428571428" y2="84.28571428571428"/><line x1="40" x2="620" y1="48.57142857142857" y2="48.57142857142857"/></g><g aria-label="y-axis tick" aria-hidden="true" fill="none" stroke="currentColor"><path transform="translate(40,370)" d="M0,0L-6,0"/><path transform="translate(40,334.2857142857143)" d="M0,0L-6,0"/><path transform="translate(40,298.57142857142856)" d="M0,0L-6,0"/><path transform="translate(40,262.8571428571429)" d="M0,0L-6,0"/><path transform="translate(40,227.14285714285714)" d="M0,0L-6,0"/><path transform="translate(40,191.42857142857144)" d="M0,0L-6,0"/><path transform="translate(40,155.71428571428572)" d="M0,0L-6,0"/><path transform="translate(40,120)" d="M0,0L-6,0"/><path transform="translate(40,84.28571428571428)" d="M0,0L-6,0"/><path transform="translate(40,48.57142857142857)" d="M0,0L-6,0"/></g><g aria-label="y-axis tick label" text-anchor="end" font-variant="tabular-nums" transform="translate(-9,0)"><text y="0.32em" transform="translate(40,370)">10</text><text y="0.32em" transform="translate(40,334.2857142857143)">15</text><text y="0.32em" transform="translate(40,298.57142857142856)">20</text><text y="0.32em" transform="translate(40,262.8571428571429)">25</text><text y="0.32em" transform="translate(40,227.14285714285714)">30</text><text y="0.32em" transform="translate(40,191.42857142857144)">35</text><text y="0.32em" transform="translate(40,155.71428571428572)">40</text><text y="0.32em" transform="translate(40,120)">45</text><text y="0.32em" transform="translate(40,84.28571428571428)">50</text><text y="0.32em" transform="translate(40,48.57142857142857)">55</text></g><g aria-label="y-axis label" text-anchor="start" transform="translate(-37,-17)"><text y="0.71em" transform="translate(40,20)">↑ Minimum Temperature (˚F)</text></g><g aria-label="x-axis tick" aria-hidden="true" fill="none" stroke="currentColor"><path transform="translate(76.25,370)" d="M0,0L0,6"/><path transform="translate(148.75,370)" d="M0,0L0,6"/><path transform="translate(221.25,370)" d="M0,0L0,6"/><path transform="translate(293.75,370)" d="M0,0L0,6"/><path transform="translate(366.25,370)" d="M0,0L0,6"/><path transform="translate(438.75,370)" d="M0,0L0,6"/><path transform="translate(511.25,370)" d="M0,0L0,6"/><path transform="translate(583.75,370)" d="M0,0L0,6"/></g><g aria-label="x-axis tick label" font-variant="tabular-nums" transform="translate(0,9)"><text y="0.71em" transform="translate(76.25,370)">1950</text><text y="0.71em" transform="translate(148.75,370)">1960</text><text y="0.71em" transform="translate(221.25,370)">1970</text><text y="0.71em" transform="translate(293.75,370)">1980</text><text y="0.71em" transform="translate(366.25,370)">1990</text><text y="0.71em" transform="translate(438.75,370)">2000</text><text y="0.71em" transform="translate(511.25,370)">2010</text><text y="0.71em" transform="translate(583.75,370)">2020</text></g><g aria-label="x-axis label" text-anchor="end" transform="translate(17,27)"><text transform="translate(620,370)">Year →</text></g><g aria-label="line" fill="none" stroke="blue" stroke-width="2" stroke-linejoin="round" stroke-linecap="round"><path d="M40,298.571L47.25,320L54.5,205.714L61.75,212.857L69,262.857L76.25,141.429L83.5,255.714L90.75,48.571L98,241.429L105.25,248.571L112.5,148.571L119.75,248.571L127,305.714L134.25,298.571L141.5,177.143L148.75,241.429L156,248.571L163.25,248.571L170.5,305.714L177.75,241.429L185,177.143L192.25,41.429L199.5,198.571L206.75,227.143L214,305.714L221.25,305.714L228.5,291.429L235.75,170L243,177.143L250.25,198.571L257.5,270L264.75,248.571L272,370L279.25,262.857L286.5,241.429L293.75,262.857L301,262.857L308.25,220L315.5,148.571L322.75,312.857L330,105.714L337.25,277.143L344.5,198.571L351.75,220L359,170L366.25,284.286L373.5,191.429L380.75,191.429L388,227.143L395.25,198.571L402.5,241.429L409.75,141.429L417,155.714L424.25,234.286L431.5,262.857L438.75,134.286L446,262.857L453.25,291.429L460.5,134.286L467.75,148.571L475,141.429L482.25,148.571L489.5,212.857L496.75,262.857L504,248.571L511.25,284.286L518.5,177.143L525.75,212.857L533,155.714L540.25,177.143L547.5,148.571L554.75,212.857L562,105.714L569.25,355.714L576.5,105.714L583.75,191.429L591,141.429L598.25,20L605.5,134.286L612.75,220L620,212.857"/></g><g aria-label="linear-regression" fill="gray" fill-opacity="0" stroke="gray" stroke-linejoin="round" stroke-linecap="round" stroke-dasharray="3" stroke-dashoffset="2"><path stroke="none" d="M40,217.852L44,217.695L48,217.538L52,217.379L56,217.219L60,217.058L64,216.895L68,216.731L72,216.566L76,216.4L80,216.232L84,216.063L88,215.892L92,215.72L96,215.546L100,215.37L104,215.193L108,215.014L112,214.833L116,214.65L120,214.465L124,214.278L128,214.089L132,213.898L136,213.705L140,213.509L144,213.311L148,213.11L152,212.907L156,212.701L160,212.492L164,212.28L168,212.065L172,211.847L176,211.626L180,211.402L184,211.174L188,210.943L192,210.707L196,210.468L200,210.225L204,209.978L208,209.727L212,209.471L216,209.211L220,208.946L224,208.676L228,208.401L232,208.121L236,207.835L240,207.544L244,207.247L248,206.945L252,206.636L256,206.322L260,206.001L264,205.673L268,205.339L272,204.998L276,204.65L280,204.295L284,203.932L288,203.562L292,203.185L296,202.8L300,202.407L304,202.007L308,201.598L312,201.181L316,200.757L320,200.324L324,199.883L328,199.433L332,198.976L336,198.51L340,198.036L344,197.554L348,197.064L352,196.565L356,196.059L360,195.544L364,195.022L368,194.492L372,193.954L376,193.409L380,192.856L384,192.296L388,191.729L392,191.155L396,190.574L400,189.987L404,189.393L408,188.792L412,188.186L416,187.573L420,186.955L424,186.33L428,185.701L432,185.066L436,184.426L440,183.781L444,183.131L448,182.476L452,181.817L456,181.153L460,180.485L464,179.813L468,179.137L472,178.457L476,177.773L480,177.086L484,176.395L488,175.701L492,175.004L496,174.304L500,173.6L504,172.894L508,172.185L512,171.473L516,170.759L520,170.042L524,169.323L528,168.601L532,167.877L536,167.151L540,166.423L544,165.693L548,164.96L552,164.226L556,163.49L560,162.753L564,162.013L568,161.272L572,160.529L576,159.785L580,159.039L584,158.292L588,157.543L592,156.793L596,156.042L600,155.289L604,154.535L608,153.78L612,153.024L616,152.266L620,151.508L620,210.155L616,210.312L612,210.47L608,210.628L604,210.788L600,210.95L596,211.112L592,211.276L588,211.441L584,211.607L580,211.775L576,211.944L572,212.115L568,212.287L564,212.461L560,212.637L556,212.814L552,212.993L548,213.174L544,213.357L540,213.542L536,213.729L532,213.918L528,214.109L524,214.302L520,214.498L516,214.696L512,214.897L508,215.1L504,215.306L500,215.515L496,215.727L492,215.942L488,216.16L484,216.381L480,216.605L476,216.833L472,217.065L468,217.3L464,217.539L460,217.782L456,218.029L452,218.28L448,218.536L444,218.796L440,219.062L436,219.331L432,219.606L428,219.886L424,220.172L420,220.463L416,220.76L412,221.062L408,221.371L404,221.685L400,222.006L396,222.334L392,222.668L388,223.009L384,223.357L380,223.712L376,224.075L372,224.445L368,224.822L364,225.207L360,225.6L356,226L352,226.409L348,226.826L344,227.25L340,227.683L336,228.124L332,228.574L328,229.031L324,229.497L320,229.971L316,230.453L312,230.943L308,231.442L304,231.948L300,232.463L296,232.985L292,233.515L288,234.053L284,234.598L280,235.151L276,235.711L272,236.278L268,236.852L264,237.433L260,238.02L256,238.615L252,239.215L248,239.821L244,240.434L240,241.052L236,241.677L232,242.306L228,242.941L224,243.581L220,244.226L216,244.877L212,245.531L208,246.191L204,246.854L200,247.522L196,248.194L192,248.87L188,249.55L184,250.234L180,250.921L176,251.612L172,252.306L168,253.003L164,253.703L160,254.407L156,255.113L152,255.822L148,256.534L144,257.248L140,257.965L136,258.684L132,259.406L128,260.13L124,260.856L120,261.584L116,262.314L112,263.047L108,263.781L104,264.517L100,265.255L96,265.994L92,266.735L88,267.478L84,268.222L80,268.968L76,269.715L72,270.464L68,271.214L64,271.965L60,272.718L56,273.472L52,274.227L48,274.983L44,275.741L40,276.499Z"/><path fill="none" d="M40,247.17554953327326L620,180.8315051404481"/></g></svg>